Results
version=1
nRows=16
nColumns=21
inDegrees=yes
endheader
time	Thorax_pitch	Thorax_roll	Thorax_yaw	Thorax_Tx	Thorax_Ty	Thorax_Tz	L_shoulder_flex-ext	L_shoulder_adb-add	L_shoulder_LAR	L_elbow_flex-ext	L_forearm_pron-sup	L_wrist_flex-ext	L_MCP_flex-ext	R_shoulder_flex-ext	R_shoulder_adb-add	R_shoulder_LAR	R_elbow_flex-ext	R_forearm_pron-sup	R_wrist_flex-ext	R_MCP_flex-ext
      0.29800000	      0.00000000	      0.00000000	    -13.47656379	      0.37241891	      0.10436279	      0.08780521	      0.00000000	      0.00000000	      0.00000000	    -67.49998635	     49.99999299	      0.00000000	      0.00000000	     30.23862931	      0.66782041	     46.91432428	    -53.28042517	     33.79630089	     59.23898892	     54.32470194
      0.29810000	      0.00000000	      0.00000000	    -13.44923736	      0.37254868	      0.10434089	      0.08778561	      0.00000000	      0.00000000	      0.00000000	    -67.49998635	     49.99999299	      0.00000000	      0.00000000	     30.26802999	      0.64738459	     46.88070794	    -53.28970174	     33.96138896	     59.17637492	     53.86215659
      0.29820000	      0.00000000	      0.00000000	    -13.45025617	      0.37266265	      0.10430706	      0.08778983	      0.00000000	      0.00000000	      0.00000000	    -67.49998635	     49.99999299	      0.00000000	      0.00000000	     30.28498957	      0.56330373	     46.82197675	    -53.28585675	     34.56431786	     59.45231917	     53.95937709
      0.29830000	      0.00000000	      0.00000000	    -13.41630531	      0.37280531	      0.10429621	      0.08778474	      0.00000000	      0.00000000	      0.00000000	    -67.49998635	     49.99999299	      0.00000000	      0.00000000	     30.31701390	      0.57365689	     46.82458358	    -53.28072595	     34.21449284	     59.08354834	     52.99337895
      0.29840000	      0.00000000	      0.00000000	    -13.38004074	      0.37292517	      0.10429001	      0.08777498	      0.00000000	      0.00000000	      0.00000000	    -67.49998635	     49.99999299	      0.00000000	      0.00000000	     30.33964086	      0.57062033	     46.82793164	    -53.30585211	     33.90079155	     58.72928690	     52.08152463
      0.29850000	      0.00000000	      0.00000000	    -13.36834840	      0.37304213	      0.10426270	      0.08776753	      0.00000000	      0.00000000	      0.00000000	    -67.49998635	     49.99999299	      0.00000000	      0.00000000	     30.35362707	      0.50412291	     46.78884177	    -53.32805508	     34.55115405	     58.94818594	     52.15441929
      0.29860000	      0.00000000	      0.00000000	    -13.42022717	      0.37316608	      0.10425823	      0.08776100	      0.00000000	      0.00000000	      0.00000000	    -67.49998635	     49.99999299	      0.00000000	      0.00000000	     30.19412563	      0.47559219	     46.87287796	    -53.38750471	     34.21924128	     58.69730445	     51.23269953
      0.29870000	      0.00000000	      0.00000000	    -13.33610030	      0.37330163	      0.10424024	      0.08776285	      0.00000000	      0.00000000	      0.00000000	    -67.49998635	     49.99999299	      0.00000000	      0.00000000	     30.35297076	      0.45825017	     46.75380352	    -53.40556009	     34.59748626	     58.52539870	     50.74194423
      0.29880000	      0.00000000	      0.00000000	    -13.29854976	      0.37339656	      0.10420546	      0.08773017	      0.00000000	      0.00000000	      0.00000000	    -67.49998635	     49.99999299	      0.00000000	      0.00000000	     30.37495255	      0.49659309	     46.73731327	    -53.52422066	     34.68889306	     58.42218508	     50.59968173
      0.29890000	      0.00000000	      0.00000000	    -13.27847953	      0.37354395	      0.10420505	      0.08773987	      0.00000000	      0.00000000	      0.00000000	    -67.49998635	     49.99999299	      0.00000000	      0.00000000	     30.41263836	      0.41048336	     46.74939198	    -53.37922245	     34.54460027	     58.37887477	     49.85395941
      0.29900000	      0.00000000	      0.00000000	    -13.25232431	      0.37367130	      0.10419424	      0.08773129	      0.00000000	      0.00000000	      0.00000000	    -67.49998635	     49.99999299	      0.00000000	      0.00000000	     30.43273625	      0.40851935	     46.73584269	    -53.41660389	     34.33848887	     57.98230542	     48.83886626
      0.29910000	      0.00000000	      0.00000000	    -13.20975041	      0.37380637	      0.10417300	      0.08771203	      0.00000000	      0.00000000	      0.00000000	    -67.49998635	     49.99999299	      0.00000000	      0.00000000	     30.49734215	      0.37085528	     46.72165263	    -53.41272661	     34.58344451	     57.97378865	     48.50254461
      0.29920000	      0.00000000	      0.00000000	    -13.18820266	      0.37388036	      0.10415139	      0.08771093	      0.00000000	      0.00000000	      0.00000000	    -67.49998635	     49.99999299	      0.00000000	      0.00000000	     30.49643578	      0.33757138	     46.61249353	    -53.52100660	     35.44996147	     58.32950935	     48.89300061
      0.29930000	      0.00000000	      0.00000000	    -13.17021586	      0.37405108	      0.10414198	      0.08770715	      0.00000000	      0.00000000	      0.00000000	    -67.49998635	     49.99999299	      0.00000000	      0.00000000	     30.51495346	      0.30920775	     46.71974130	    -53.43659614	     34.57200792	     57.72036746	     47.44560028
      0.29940000	      0.00000000	      0.00000000	    -13.15867088	      0.37415185	      0.10412238	      0.08770947	      0.00000000	      0.00000000	      0.00000000	    -67.49998635	     49.99999299	      0.00000000	      0.00000000	     30.50190665	      0.26655382	     46.65723067	    -53.55053742	     35.13514005	     57.76568193	     47.38236008
      0.29950000	      0.00000000	      0.00000000	    -13.13942676	      0.37429726	      0.10411235	      0.08769531	      0.00000000	      0.00000000	      0.00000000	    -67.49998635	     49.99999299	      0.00000000	      0.00000000	     30.53015078	      0.24826402	     46.67960197	    -53.46072886	     34.64665913	     57.41135733	     46.29079287
